#N canvas 69 259 1037 476 12;
#X obj 5 5 cnv 30 30 42 empty empty empty 20 12 0 14 -204800 -66577
0;
#X obj 8 23 bng 24 250 50 0 \$1-clear-s \$1-clear-r CLEAR -2 -8 0 10
-257985 -1 -1;
#X obj 97 139 float 10;
#X obj 623 221 float;
#X obj 623 191 t f b;
#X obj 833 221 float;
#X obj 833 191 t f b;
#X obj 900 221 float 0;
#X obj 698 27 loadbang;
#X obj 623 265 pack f f s;
#X obj 833 265 pack f f f;
#X obj 97 168 send \$1-channel-r;
#X obj 77 12 receive \$1-clear-s;
#X obj 698 60 float \$1;
#X obj 413 186 pack f f;
#X obj 77 226 send \$1-bank-r;
#X obj 77 197 float 0;
#X obj 258 336 float;
#X obj 518 336 float 0;
#X obj 258 380 pack f f f s;
#X obj 451 380 pack f f f f;
#X obj 263 235 for++ 0 3;
#X obj 258 306 t b b;
#X obj 451 336 float;
#X obj 263 204 bng 15 250 50 0 empty empty empty 17 7 0 10 -262144
-1 -1;
#X obj 658 26 bng 15 250 50 0 empty empty empty 17 7 0 10 -262144 -1
-1;
#X obj 451 306 t b f b;
#X obj 690 221 symbol Unassigned;
#X obj 312 336 symbol Unassigned;
#X msg 451 417 \; gain-\$3-\$2-\$1-r set \$4;
#X msg 413 211 \; slot-note-\$2-\$1-r set \$1;
#X obj 310 108 for++ 0 31 1 1;
#X msg 310 82 start;
#X obj 77 40 t b b b b;
#X obj 117 85 symbol None;
#X obj 117 111 send \$1-loaded-r;
#X obj 64 336 float;
#X obj 64 380 pack f f f s;
#X obj 64 306 t b b;
#X obj 118 336 symbol Unassigned;
#X msg 64 417 \; file-\$3-\$2-\$1-r set \$4;
#X msg 258 417 \; path-\$3-\$2-\$1-r set \$4;
#X msg 623 322 \; slot-file-\$2-\$1-r set \$3;
#X msg 833 322 \; slot-gain-\$2-\$1-r set \$3;
#X obj 638 297 bng 15 250 50 0 empty empty empty 17 7 0 10 -262144
-1 -1;
#X obj 850 297 bng 15 250 50 0 empty empty empty 17 7 0 10 -262144
-1 -1;
#X connect 2 0 11 0;
#X connect 3 0 9 0;
#X connect 4 0 3 0;
#X connect 4 1 27 0;
#X connect 5 0 10 0;
#X connect 6 0 5 0;
#X connect 6 1 7 0;
#X connect 7 0 10 2;
#X connect 8 0 13 0;
#X connect 9 0 42 0;
#X connect 9 0 44 0;
#X connect 10 0 43 0;
#X connect 10 0 45 0;
#X connect 12 0 33 0;
#X connect 13 0 14 1;
#X connect 13 0 9 1;
#X connect 13 0 10 1;
#X connect 13 0 19 2;
#X connect 13 0 20 2;
#X connect 13 0 37 2;
#X connect 14 0 30 0;
#X connect 16 0 15 0;
#X connect 17 0 19 0;
#X connect 18 0 20 3;
#X connect 19 0 41 0;
#X connect 20 0 29 0;
#X connect 21 0 19 1;
#X connect 21 0 22 0;
#X connect 21 0 26 0;
#X connect 21 0 38 0;
#X connect 21 0 37 1;
#X connect 22 0 17 0;
#X connect 22 1 28 0;
#X connect 23 0 20 0;
#X connect 24 0 21 0;
#X connect 25 0 13 0;
#X connect 26 0 23 0;
#X connect 26 1 20 1;
#X connect 26 2 18 0;
#X connect 27 0 9 2;
#X connect 28 0 19 3;
#X connect 31 0 14 0;
#X connect 31 0 4 0;
#X connect 31 0 6 0;
#X connect 31 0 17 1;
#X connect 31 0 23 1;
#X connect 31 0 24 0;
#X connect 31 0 36 1;
#X connect 32 0 31 0;
#X connect 33 0 16 0;
#X connect 33 1 2 0;
#X connect 33 2 34 0;
#X connect 33 3 32 0;
#X connect 34 0 35 0;
#X connect 36 0 37 0;
#X connect 37 0 40 0;
#X connect 38 0 36 0;
#X connect 38 1 39 0;
#X connect 39 0 37 3;
#X coords 0 -1 1 1 30 42 2 5 5;
