#N canvas 226 368 303 355 12;
#X msg 88 158 \$1 20;
#X obj 88 181 line~;
#X obj 69 212 *~;
#X obj 69 300 dac~;
#X obj 5 5 cnv 15 140 40 empty empty empty 20 12 0 14 -204800 -66577
0;
#X obj 10 26 hsl 128 15 0.0004 4 0 0 \$0-gain-s \$0-gain-r GAIN -2
-8 0 10 -257985 -1 -1 4300 0;
#X obj 88 107 receive \$0-gain-s;
#X floatatom 88 136 5 0 0 0 - - -;
#X obj 68 73 catch~ \$1-out;
#X obj 70 262 safety~;
#X obj 142 255 send~ \$1-meter;
#X connect 0 0 1 0;
#X connect 1 0 2 1;
#X connect 2 0 9 0;
#X connect 2 0 10 0;
#X connect 6 0 7 0;
#X connect 7 0 0 0;
#X connect 8 0 2 0;
#X connect 9 0 3 0;
#X connect 9 0 3 1;
#X coords 0 -1 1 1 140 40 2 5 5;
