#N canvas 46 265 1317 479 12;
#X obj 24 68 nbx 5 18 0 1 0 0 gain-\$1-\$2-\$3-s gain-\$1-\$2-\$3-r
Gain 65 10 0 12 -262144 -1 -1 0 256;
#X symbolatom 24 14 20 0 0 1 File file-#1-#2-#3-r file-#1-#2-#3-s;
#X obj 256 44 bng 15 250 50 0 empty empty empty 17 7 0 10 -262144 -1
-1;
#X obj 670 44 bng 15 250 50 0 empty empty empty 17 7 0 10 -262144 -1
-1;
#X obj 241 16 r file-\$1-\$2-\$3-get;
#X obj 655 16 r gain-\$1-\$2-\$3-get;
#X obj 308 330 r file-\$1-\$2-\$3-s;
#X obj 241 278 float \$1;
#X obj 320 150 float \$2;
#X obj 274 304 float \$3;
#X msg 241 385 \; file-\$1-value \$2 \$3;
#X obj 241 356 pack f f s;
#X obj 241 68 t b b b;
#X msg 287 229 \; file-\$1-\$2-\$3-r bang;
#X obj 287 202 pack f f f;
#X obj 287 125 float \$1;
#X obj 354 175 float \$3;
#X obj 287 95 t b b b;
#X obj 655 278 float \$1;
#X obj 734 150 float \$2;
#X obj 688 304 float \$3;
#X obj 655 68 t b b b;
#X obj 701 202 pack f f f;
#X obj 701 125 float \$1;
#X obj 768 175 float \$3;
#X obj 701 95 t b b b;
#X msg 701 229 \; gain-\$1-\$2-\$3-r bang;
#X obj 722 330 r gain-\$1-\$2-\$3-s;
#X obj 655 356 pack f f f;
#X msg 655 385 \; gain-\$1-value \$2 \$3;
#N canvas 0 50 450 250 (subpatch) 0;
#X array sf-\$1-\$2-\$3 41224 float 4;
#X coords 0 1 41223 -1 300 200 1 0 0;
#X restore 908 34 graph;
#X symbolatom 24 41 20 0 0 1 Path path-#1-#2-#3-r path-#1-#2-#3-s;
#X obj 873 267 bng 15 250 50 0 empty empty empty 17 7 0 10 -262144
-1 -1;
#X obj 909 339 tabplay~ sf-\$1-\$2-\$3;
#X obj 22 386 soundfiler;
#X floatatom 22 413 5 0 0 0 - - -;
#X obj 89 413 list;
#X msg 22 361 read -resize \$1 sf-\$4-\$3-\$2;
#X obj 22 337 pack s f f f;
#X obj 22 215 t s b b b;
#X obj 62 270 f \$2;
#X obj 42 245 f \$3;
#X obj 82 295 f \$1;
#X obj 22 110 r path-\$1-\$2-\$3-r;
#X obj 22 191 symbol;
#X obj 22 134 route set;
#X obj 463 44 bng 15 250 50 0 empty empty empty 17 7 0 10 -262144 -1
-1;
#X obj 448 278 float \$1;
#X obj 527 150 float \$2;
#X obj 481 304 float \$3;
#X obj 448 356 pack f f s;
#X obj 448 68 t b b b;
#X obj 494 202 pack f f f;
#X obj 494 125 float \$1;
#X obj 561 175 float \$3;
#X obj 494 95 t b b b;
#X obj 448 16 r path-\$1-\$2-\$3-get;
#X msg 494 229 \; path-\$1-\$2-\$3-r bang;
#X obj 515 330 r path-\$1-\$2-\$3-s;
#X msg 448 385 \; path-\$1-value \$2 \$3;
#X obj 22 159 route Unassigned;
#X obj 909 262 receive play-\$1-\$2-\$3-r;
#X obj 910 403 *~;
#X obj 909 291 t b b;
#X floatatom 950 403 5 0 0 0 - - -;
#X obj 928 371 r gain-\$1-\$2-\$3-s;
#X obj 941 313 s gain-\$1-\$2-\$3-r;
#X obj 910 435 throw~ \$1-out;
#X obj 1123 345 tabplay~ sf-\$1-\$2-\$3;
#X obj 1124 378 *~;
#X floatatom 1155 317 5 0 1 0 - - -;
#X obj 1124 410 throw~ \$1-out;
#X obj 1123 262 receive midi-\$1-\$2-\$3-r;
#X obj 1123 291 t b f;
#X obj 873 307 bng 15 250 50 0 empty empty empty 17 7 0 10 -262144
-1 -1;
#X obj 1098 307 bng 15 250 50 0 empty empty empty 17 7 0 10 -262144
-1 -1;
#X obj 154 220 bng 15 250 50 0 empty empty empty 17 7 0 10 -262144
-1 -1;
#X connect 4 0 2 0;
#X connect 4 0 12 0;
#X connect 5 0 3 0;
#X connect 5 0 21 0;
#X connect 6 0 11 2;
#X connect 7 0 11 0;
#X connect 8 0 14 1;
#X connect 9 0 11 1;
#X connect 11 0 10 0;
#X connect 12 0 7 0;
#X connect 12 1 9 0;
#X connect 12 2 17 0;
#X connect 14 0 13 0;
#X connect 15 0 14 0;
#X connect 16 0 14 2;
#X connect 17 0 15 0;
#X connect 17 1 8 0;
#X connect 17 2 16 0;
#X connect 18 0 28 0;
#X connect 19 0 22 1;
#X connect 20 0 28 1;
#X connect 21 0 18 0;
#X connect 21 1 20 0;
#X connect 21 2 25 0;
#X connect 22 0 26 0;
#X connect 23 0 22 0;
#X connect 24 0 22 2;
#X connect 25 0 23 0;
#X connect 25 1 19 0;
#X connect 25 2 24 0;
#X connect 27 0 28 2;
#X connect 28 0 29 0;
#X connect 32 0 63 0;
#X connect 33 0 62 0;
#X connect 34 0 35 0;
#X connect 34 1 36 0;
#X connect 37 0 34 0;
#X connect 38 0 37 0;
#X connect 39 0 38 0;
#X connect 39 1 41 0;
#X connect 39 2 40 0;
#X connect 39 3 42 0;
#X connect 40 0 38 2;
#X connect 41 0 38 1;
#X connect 42 0 38 3;
#X connect 43 0 45 0;
#X connect 43 0 76 0;
#X connect 44 0 39 0;
#X connect 45 0 60 0;
#X connect 47 0 50 0;
#X connect 48 0 52 1;
#X connect 49 0 50 1;
#X connect 50 0 59 0;
#X connect 51 0 47 0;
#X connect 51 1 49 0;
#X connect 51 2 55 0;
#X connect 52 0 57 0;
#X connect 53 0 52 0;
#X connect 54 0 52 2;
#X connect 55 0 53 0;
#X connect 55 1 48 0;
#X connect 55 2 54 0;
#X connect 56 0 46 0;
#X connect 56 0 51 0;
#X connect 58 0 50 2;
#X connect 60 1 44 0;
#X connect 61 0 63 0;
#X connect 61 0 74 0;
#X connect 62 0 67 0;
#X connect 63 0 33 0;
#X connect 63 1 66 0;
#X connect 65 0 62 1;
#X connect 65 0 64 0;
#X connect 68 0 69 0;
#X connect 69 0 71 0;
#X connect 70 0 69 1;
#X connect 72 0 73 0;
#X connect 72 0 75 0;
#X connect 73 0 68 0;
#X connect 73 1 70 0;
