#N canvas 164 231 664 500 12;
#X obj 5 5 cnv 15 80 80 bank-\$1-s bank-\$1-r empty 20 12 0 14 -204800
-66577 0;
#X obj 9 13 vradio 15 1 0 4 \$1-bank-s \$1-bank-r empty 0 -8 0 10 -204800
-1 -1 1;
#X obj 160 46 bng 15 250 50 0 empty empty empty 17 7 0 10 -262144 -1
-1;
#X obj 147 106 t b f;
#X obj 147 142 for++ 0 31;
#X obj 360 94 loadbang;
#X obj 360 120 float \$1;
#X obj 113 104 bng 15 250 50 0 empty empty empty 17 7 0 10 -262144
-1 -1;
#X obj 147 16 r \$1-bank-s;
#X obj 198 177 * 32;
#X obj 180 204 +;
#X obj 147 234 pack f f f;
#X obj 147 177 t f f;
#X msg 147 263 \; slot-note-\$3-\$1-r set \$2;
#X obj 432 238 pack f f f;
#X msg 464 290 \; gain-\$3-\$2-\$1-get bang;
#X msg 432 333 \; file-\$3-\$2-\$1-get bang;
#X obj 147 72 float;
#X obj 94 333 r file-\$1-value;
#X obj 94 369 unpack f s;
#X obj 94 411 pack f f s;
#X obj 294 333 r gain-\$1-value;
#X obj 294 369 unpack f f;
#X obj 294 411 pack f f f;
#X msg 94 444 \; slot-file-\$2-\$1-r set \$3;
#X msg 294 444 \; slot-gain-\$2-\$1-r set \$3;
#X obj 432 262 t l l;
#X text 29 11 Group 1;
#X text 29 26 Group 2;
#X text 29 41 Group 3;
#X text 29 56 Group 4;
#X connect 3 0 4 0;
#X connect 3 1 9 0;
#X connect 3 1 14 1;
#X connect 4 0 12 0;
#X connect 4 0 14 0;
#X connect 5 0 6 0;
#X connect 6 0 11 2;
#X connect 6 0 14 2;
#X connect 6 0 20 1;
#X connect 6 0 23 1;
#X connect 7 0 17 0;
#X connect 8 0 2 0;
#X connect 8 0 17 0;
#X connect 9 0 10 1;
#X connect 10 0 11 1;
#X connect 11 0 13 0;
#X connect 12 0 11 0;
#X connect 12 1 10 0;
#X connect 14 0 26 0;
#X connect 17 0 3 0;
#X connect 18 0 19 0;
#X connect 19 0 20 0;
#X connect 19 1 20 2;
#X connect 20 0 24 0;
#X connect 21 0 22 0;
#X connect 22 0 23 0;
#X connect 22 1 23 2;
#X connect 23 0 25 0;
#X connect 26 0 16 0;
#X connect 26 1 15 0;
#X coords 0 -1 1 1 80 80 2 5 5;
