#N canvas 449 185 968 417 12;
#X obj 5 5 cnv 30 30 42 empty empty empty 20 12 0 14 -204800 -66577
0;
#X obj 5 23 bng 24 250 50 0 \$1-load-s \$1-load-r LOAD 0 -8 0 10 -257985
-1 -1;
#X obj 65 27 receive \$1-load-s;
#X obj 65 101 openpanel;
#X obj 44 334 textfile;
#X obj 44 365 send \$0-load-1;
#X obj 411 94 send \$1-channel-r;
#X obj 411 28 receive \$0-load-1;
#X obj 65 264 until;
#X msg 44 172 read \$1;
#X obj 65 209 t b b;
#X msg 97 235 rewind;
#X msg 123 306 clear;
#X obj 65 134 t b s;
#X obj 194 216 symbol Loading;
#X obj 194 240 pack s s;
#X obj 194 192 t b s;
#X obj 65 74 get-sub-dir data;
#X obj 194 264 send \$1-msg-log-r;
#X obj 32 73 bng 15 250 50 0 empty empty empty 17 7 0 10 -262144 -1
-1;
#X obj 604 94 print load-state Invalid data;
#X obj 647 28 loadbang;
#X obj 647 57 float \$1;
#X obj 410 168 pack f f s f;
#X obj 808 132 unpack f f f;
#X obj 808 168 pack f f f f;
#X obj 212 308 f \$1;
#X obj 212 334 pack f;
#X msg 212 360 \; \$1-bank-r 0;
#X obj 410 132 unpack f f s;
#X symbolatom 194 129 25 0 0 0 - - -;
#X obj 223 76 parse-file-path;
#X obj 210 161 send \$1-loaded-r;
#X obj 159 159 bng 15 250 50 0 empty empty empty 17 7 0 10 -262144
-1 -1;
#X obj 411 57 route channel file path gain;
#X obj 609 168 pack f f s f;
#X obj 609 132 unpack f f s;
#X msg 808 194 \; gain-\$4-\$1-\$2-r \$3;
#X msg 410 194 \; file-\$4-\$1-\$2-r set \$3;
#X msg 609 194 \; path-\$4-\$1-\$2-r set \$3;
#X connect 2 0 17 0;
#X connect 2 0 19 0;
#X connect 3 0 13 0;
#X connect 4 0 5 0;
#X connect 4 1 8 1;
#X connect 4 1 12 0;
#X connect 4 1 26 0;
#X connect 7 0 34 0;
#X connect 8 0 4 0;
#X connect 9 0 4 0;
#X connect 10 0 8 0;
#X connect 10 1 11 0;
#X connect 11 0 4 0;
#X connect 12 0 4 0;
#X connect 13 0 10 0;
#X connect 13 1 9 0;
#X connect 13 1 31 0;
#X connect 14 0 15 0;
#X connect 15 0 18 0;
#X connect 16 0 14 0;
#X connect 16 1 15 1;
#X connect 17 0 3 0;
#X connect 21 0 22 0;
#X connect 22 0 23 3;
#X connect 22 0 25 3;
#X connect 22 0 35 3;
#X connect 23 0 38 0;
#X connect 24 0 25 0;
#X connect 24 1 25 1;
#X connect 24 2 25 2;
#X connect 25 0 37 0;
#X connect 26 0 27 0;
#X connect 27 0 28 0;
#X connect 29 0 23 0;
#X connect 29 1 23 1;
#X connect 29 2 23 2;
#X connect 30 0 16 0;
#X connect 30 0 32 0;
#X connect 31 2 30 0;
#X connect 33 0 30 0;
#X connect 34 0 6 0;
#X connect 34 1 29 0;
#X connect 34 2 36 0;
#X connect 34 3 24 0;
#X connect 34 4 20 0;
#X connect 35 0 39 0;
#X connect 36 0 35 0;
#X connect 36 1 35 1;
#X connect 36 2 35 2;
#X coords 0 -1 1 1 30 42 2 5 5;
