#N canvas 772 400 566 393 12;
#X obj 121 136 env~ 1024;
#X obj 223 118 abs~;
#X obj 223 220 snapshot~;
#X obj 223 263 rmstodb;
#X obj 223 295 - 100;
#X obj 121 294 - 100;
#X obj 305 96 expr 1000 / $f1;
#X floatatom 305 124 5 0 0 0 - - -;
#X obj 223 153 slop~ 0 0 0 0 1e+009;
#X text 421 96 convert to hz;
#X text 348 125 hz;
#X text 385 64 peak decay time in ms;
#X obj 121 178 t f b;
#X obj 305 35 loadbang;
#X obj 5 5 cnv 15 70 140 empty empty empty 20 12 0 14 -204800 -66577
0;
#X obj 10 13 vu 15 120 empty empty -1 -8 0 10 -262144 -1 1 0;
#X obj 305 66 float 1000;
#X floatatom 19 157 5 0 0 0 - - -;
#X floatatom 9 186 5 0 0 0 - - -;
#X obj 121 28 receive~ \$1-meter;
#X connect 0 0 12 0;
#X connect 1 0 8 0;
#X connect 2 0 3 0;
#X connect 3 0 4 0;
#X connect 4 0 15 1;
#X connect 5 0 15 0;
#X connect 6 0 7 0;
#X connect 7 0 8 3;
#X connect 8 0 2 0;
#X connect 12 0 5 0;
#X connect 12 1 2 0;
#X connect 13 0 16 0;
#X connect 15 0 18 0;
#X connect 15 1 17 0;
#X connect 16 0 6 0;
#X connect 19 0 0 0;
#X connect 19 0 1 0;
#X coords 0 -1 1 1 70 140 2 5 5;
