#N canvas 762 156 556 333 12;
#X declare -lib zexy;
#X obj 27 76 hip~ 1;
#X obj 27 194 *~;
#X obj 28 261 outlet~;
#X obj 27 16 inlet~;
#X text 82 76 Remove any DC offset;
#X text 235 116 Limit to prevent clipping;
#X text 240 150 Author: David Kettle;
#X text 240 166 Written: 2015-09-02;
#X text 240 186 Removes any DC offset and;
#X text 240 202 applies limiting to prevent clipping;
#X obj 27 130 z~ 64;
#X obj 123 129 limiter~;
#X obj 125 16 declare -lib zexy;
#X connect 0 0 10 0;
#X connect 0 0 11 0;
#X connect 1 0 2 0;
#X connect 3 0 0 0;
#X connect 10 0 1 0;
#X connect 11 0 1 1;
