#N canvas 704 113 441 444 12;
#X msg 123 94 clear;
#X obj 83 235 savepanel;
#X msg 83 285 write \$1;
#X obj 123 118 send \$0-qlist;
#X obj 83 309 send \$0-qlist;
#X obj 258 23 receive \$0-qlist;
#X obj 258 52 qlist;
#N canvas 575 29 658 758 add-data-to-list 1;
#X obj 91 25 inlet;
#X obj 48 25 bng 15 250 50 0 empty empty empty 17 7 0 10 -262144 -1
-1;
#X obj 216 629 send \$0-qlist;
#X obj 91 201 for++ 0 3;
#X obj 155 25 receive \$1-channel-s;
#X obj 123 86 float;
#X obj 123 114 pack f;
#X obj 123 167 send \$0-qlist;
#X msg 123 142 add channel \$1;
#X obj 91 57 t b b;
#X obj 91 284 for++ 0 31;
#X obj 91 230 t b f;
#X obj 326 25 loadbang;
#X obj 326 49 float \$1;
#X obj 91 309 pack f f f;
#X msg 137 390 \; gain-\$3-\$2-\$1-get bang;
#X obj 216 484 r file-\$1-value;
#X obj 216 512 unpack f s;
#X obj 216 567 pack f f s;
#X obj 505 484 r gain-\$1-value;
#X obj 505 512 unpack f f;
#X obj 505 567 pack f f f;
#X obj 505 629 send \$0-qlist;
#X msg 216 595 add file \$2 \$1 \$3;
#X msg 505 595 add gain \$2 \$1 \$3;
#X obj 360 629 send \$0-qlist;
#X obj 360 512 unpack f s;
#X obj 360 567 pack f f s;
#X obj 360 484 r path-\$1-value;
#X msg 360 595 add path \$2 \$1 \$3;
#X obj 91 361 t l l l;
#X msg 32 472 \; file-\$3-\$2-\$1-get bang;
#X msg 91 431 \; path-\$3-\$2-\$1-get bang;
#X obj 197 544 bng 15 250 50 0 empty empty empty 17 7 0 10 -262144
-1 -1;
#X obj 341 544 bng 15 250 50 0 empty empty empty 17 7 0 10 -262144
-1 -1;
#X obj 486 544 bng 15 250 50 0 empty empty empty 17 7 0 10 -262144
-1 -1;
#X floatatom 520 543 5 0 0 0 - - -;
#X symbolatom 230 541 10 0 0 0 - - -;
#X symbolatom 375 543 10 0 0 0 - - -;
#X obj 123 254 t f f f f;
#X obj 19 323 print;
#X obj 184 714 print file;
#X obj 336 714 print path;
#X obj 483 714 print gain;
#X obj 184 687 spigot;
#X obj 336 687 spigot;
#X obj 483 687 spigot;
#X obj 223 664 tgl 15 0 empty empty <--debug 17 7 0 10 -262144 -1 -1
0 1;
#X obj 375 664 tgl 15 0 empty empty <--debug 17 7 0 10 -262144 -1 -1
0 1;
#X obj 522 664 tgl 15 0 empty empty <--debug 17 7 0 10 -262144 -1 -1
0 1;
#X connect 0 0 9 0;
#X connect 1 0 9 0;
#X connect 3 0 11 0;
#X connect 4 0 5 1;
#X connect 5 0 6 0;
#X connect 6 0 8 0;
#X connect 8 0 7 0;
#X connect 9 0 3 0;
#X connect 9 1 5 0;
#X connect 10 0 14 0;
#X connect 11 0 10 0;
#X connect 11 1 39 0;
#X connect 12 0 13 0;
#X connect 13 0 14 2;
#X connect 14 0 30 0;
#X connect 16 0 17 0;
#X connect 16 0 33 0;
#X connect 17 0 18 0;
#X connect 17 1 18 2;
#X connect 17 1 37 0;
#X connect 18 0 23 0;
#X connect 18 0 44 0;
#X connect 19 0 20 0;
#X connect 19 0 35 0;
#X connect 20 0 21 0;
#X connect 20 1 21 2;
#X connect 20 1 36 0;
#X connect 21 0 24 0;
#X connect 21 0 46 0;
#X connect 23 0 2 0;
#X connect 24 0 22 0;
#X connect 26 0 27 0;
#X connect 26 1 27 2;
#X connect 26 1 38 0;
#X connect 27 0 29 0;
#X connect 27 0 45 0;
#X connect 28 0 26 0;
#X connect 28 0 34 0;
#X connect 29 0 25 0;
#X connect 30 0 31 0;
#X connect 30 1 32 0;
#X connect 30 2 15 0;
#X connect 39 0 14 1;
#X connect 39 1 18 1;
#X connect 39 2 27 1;
#X connect 39 3 21 1;
#X connect 44 0 41 0;
#X connect 45 0 42 0;
#X connect 46 0 43 0;
#X connect 47 0 44 1;
#X connect 48 0 45 1;
#X connect 49 0 46 1;
#X restore 103 148 pd add-data-to-list;
#X obj 5 5 cnv 30 30 42 empty empty empty 20 12 0 14 -204800 -66577
0;
#X obj 8 23 bng 24 250 50 0 \$1-save-s \$1-save-r SAVE 0 -8 0 10 -257985
-1 -1;
#X obj 63 23 receive \$1-save-s;
#X text 58 182 Get full path to sub-directory;
#X obj 83 203 get-sub-dir data;
#X obj 232 379 pack s s;
#X obj 232 331 t b s;
#X obj 232 403 send \$1-msg-log-r;
#X obj 232 355 symbol Saving;
#X symbolatom 232 307 25 0 0 0 - - -;
#X obj 164 279 parse-file-path;
#X obj 63 67 t b b b b;
#X obj 62 388 send \$1-bank-r;
#X obj 62 361 float 0;
#X obj 34 332 bng 15 250 50 0 empty empty empty 17 7 0 10 -262144 -1
-1;
#X connect 0 0 3 0;
#X connect 1 0 2 0;
#X connect 1 0 18 0;
#X connect 2 0 4 0;
#X connect 5 0 6 0;
#X connect 10 0 19 0;
#X connect 12 0 1 0;
#X connect 13 0 15 0;
#X connect 14 0 16 0;
#X connect 14 1 13 1;
#X connect 16 0 13 0;
#X connect 17 0 14 0;
#X connect 18 2 17 0;
#X connect 19 1 12 0;
#X connect 19 2 7 0;
#X connect 19 3 0 0;
#X connect 21 0 20 0;
#X connect 22 0 21 0;
#X coords 0 -1 1 1 30 42 2 5 5;
