#N canvas 527 7 836 691 12;
#X obj 233 96 openpanel;
#X obj 233 70 pdcontrol;
#X msg 233 44 dir 0 data;
#X obj 5 5 cnv 15 204 50 empty empty empty 20 12 0 14 -262130 -66577
0;
#X symbolatom 29 11 25 0 0 0 - slot-file-#1-#2-r slot-file-#1-#2-s
;
#X obj 8 11 bng 18 250 50 0 slot-load-\$1-\$2-s slot-load-\$1-\$2-r
empty 17 7 0 10 -257985 -1 -1;
#X obj 69 33 hsl 135 16 0 1 0 0 slot-gain-\$1-\$2-s slot-gain-\$1-\$2-r
empty -2 -8 0 10 -257985 -1 -1 0 0;
#X obj 11 70 loadbang;
#X obj 28 33 nbx 3 16 0 127 0 0 empty empty empty 0 -8 0 10 -258113
-1 -1 0 256;
#X obj 28 33 nbx 3 16 0 127 0 0 slot-note-\$1-\$2-s slot-note-\$1-\$2-r
empty 0 -8 0 10 -262130 -1 -1 0 256;
#X obj 673 36 * 32;
#X obj 512 70 pack s f;
#X obj 670 186 * 32;
#X obj 512 220 pack f f;
#X obj 512 12 receive file-\$1-\$2-s;
#X obj 512 162 receive gain-\$1-\$2-s;
#X obj 673 12 receive \$1-bank-s;
#X obj 670 162 receive \$1-bank-s;
#X msg 512 96 \; slot-file-\$1-\$2-r symbol \$1;
#X msg 512 246 \; slot-gain-\$1-\$2-r set \$1;
#X obj 11 139 for++ 0 31;
#X obj 11 190 pack f f;
#X msg 11 215 \; slot-note-\$2-\$1-r set \$1;
#X obj 64 164 f \$1;
#X obj 11 108 t b b;
#X obj 13 267 receive slot-gain-\$1-\$2-s;
#X obj 13 393 pack f f f f;
#X obj 94 370 f \$1;
#X obj 67 348 r \$1-bank-s;
#X obj 40 326 f \$2;
#X obj 13 297 t f b b;
#X obj 592 395 f \$1;
#X obj 565 373 r \$1-bank-s;
#X obj 538 351 f \$2;
#X obj 511 292 receive slot-file-\$1-\$2-s;
#X obj 511 322 t s b b;
#X msg 511 449 \; file-\$4-\$3-\$2-r symbol \$1;
#X obj 301 558 send slot-file-\$1-\$2-r;
#X obj 233 318 parse-file-path;
#X msg 301 345 symbol \$1;
#X obj 233 12 receive slot-load-\$1-\$2-s;
#X obj 511 418 pack s f f f;
#X obj 317 487 pack s f f f;
#X obj 398 461 f \$1;
#X obj 371 437 r \$1-bank-s;
#X obj 344 415 f \$2;
#X obj 317 384 t s b b;
#X msg 317 515 \; file-\$4-\$3-\$2-r set \$1;
#X obj 267 235 pack s f f f;
#X obj 348 209 f \$1;
#X obj 321 185 r \$1-bank-s;
#X obj 294 163 f \$2;
#X obj 267 132 t s b b;
#X obj 528 45 bng 15 250 50 0 empty empty empty 17 7 0 10 -262144 -1
-1;
#X obj 528 195 bng 15 250 50 0 empty empty empty 17 7 0 10 -262144
-1 -1;
#X obj 8 32 bng 18 250 50 0 slot-play-\$1-\$2-s slot-play-\$1-\$2-r
> 4 8 0 20 -4034 -4034 -1;
#X obj 13 474 receive slot-play-\$1-\$2-s;
#X obj 94 574 f \$1;
#X obj 67 552 r \$1-bank-s;
#X obj 40 530 f \$2;
#X obj 13 501 t s b b;
#X obj 13 597 pack s f f f;
#X msg 13 628 \; play-\$4-\$3-\$2-r bang;
#X obj 104 510 bng 15 250 50 0 empty empty empty 17 7 0 10 -262144
-1 -1;
#X msg 267 263 \; path-\$4-\$3-\$2-r set \$1;
#X msg 13 424 \; gain-\$4-\$3-\$2-r \$1;
#X connect 0 0 38 0;
#X connect 0 0 52 0;
#X connect 1 0 0 0;
#X connect 2 0 1 0;
#X connect 7 0 24 0;
#X connect 10 0 11 1;
#X connect 11 0 18 0;
#X connect 12 0 13 1;
#X connect 13 0 19 0;
#X connect 14 0 53 0;
#X connect 14 0 11 0;
#X connect 15 0 54 0;
#X connect 15 0 13 0;
#X connect 16 0 10 0;
#X connect 17 0 12 0;
#X connect 20 0 21 0;
#X connect 21 0 22 0;
#X connect 23 0 21 1;
#X connect 24 0 20 0;
#X connect 24 1 23 0;
#X connect 25 0 30 0;
#X connect 26 0 65 0;
#X connect 27 0 26 3;
#X connect 28 0 26 2;
#X connect 29 0 26 1;
#X connect 30 0 26 0;
#X connect 30 1 29 0;
#X connect 30 2 27 0;
#X connect 31 0 41 3;
#X connect 32 0 41 2;
#X connect 33 0 41 1;
#X connect 34 0 35 0;
#X connect 35 0 41 0;
#X connect 35 1 33 0;
#X connect 35 2 31 0;
#X connect 38 2 39 0;
#X connect 39 0 37 0;
#X connect 39 0 46 0;
#X connect 40 0 2 0;
#X connect 41 0 36 0;
#X connect 42 0 47 0;
#X connect 43 0 42 3;
#X connect 44 0 42 2;
#X connect 45 0 42 1;
#X connect 46 0 42 0;
#X connect 46 1 45 0;
#X connect 46 2 43 0;
#X connect 48 0 64 0;
#X connect 49 0 48 3;
#X connect 50 0 48 2;
#X connect 51 0 48 1;
#X connect 52 0 48 0;
#X connect 52 1 51 0;
#X connect 52 2 49 0;
#X connect 56 0 60 0;
#X connect 56 0 63 0;
#X connect 57 0 61 3;
#X connect 58 0 61 2;
#X connect 59 0 61 1;
#X connect 60 0 61 0;
#X connect 60 1 59 0;
#X connect 60 2 57 0;
#X connect 61 0 62 0;
#X coords 0 -1 1 1 204 50 2 5 5;
